# xmcd
#
# Track frame offsets:
#	150
#	14904
#	30555
#	45209
#	60096
#	74895
#	88921
#	104679
#	119873
#	134453
#	149257
#	165088
#	181012
#	198080
#	212684
#	228033
#	243847
#	259528
#
# Disc length: 3669 seconds
#
# Revision: 0
# Processed by: cddbd v1.5.1PL2 Copyright (c) Steve Scherf et al.
# Submitted via: audiograbber 1.82.01
#
DISCID=f50e5312
DTITLE=Περιστέρης Σπύρος - Περιστέρης Σπύριος 3
DYEAR=1937
DGENRE=Rebetika
TTITLE0=Στης Πλάκας τα Στενάκια
TTITLE1=Είμαι Παιδάκι Μάλαμα
TTITLE2=Απόψε θα Περάσω
TTITLE3=Θα Σπάσει το Μπούζούκι μου
TTITLE4=Ένα Λαχείο Ζήταγα
TTITLE5=Δε μου Μιλάς δε με Κοιτάς
TTITLE6=Εσούρωσα κι Απόψε
TTITLE7=Η Γιαννούλα από τα Λιόσια
TTITLE8=Το Πορτοφόλι
TTITLE9=Μεσ' τον Οντά ενός Πασά
TTITLE10=Το Γριγρί
TTITLE11=Στο Γλυκοχόραμα
TTITLE12=Σεχραζάτ
TTITLE13=Ο Ζόρικος
TTITLE14=Έλα να Κάνεις Νάνι-Νάνι
TTITLE15=Έλα Έλα Πάλι
TTITLE16=Η Καρδιά του Μάγκα
TTITLE17=Για της Τσιγγάνας τη Καρδιά
EXTD=1937-1949
EXTT0=Τραγούδι: Κώστας Ρούκουνας
EXTT1=Τραγούδι: Μάρκος Βαμβακάρης
EXTT2=Τραγούδι: Χατζηχρήστος, Μ. Βαμβακάρης, Παπαϊωάννου
EXTT3=Τραγούδι: Μ. Βαμβακάρης, Χατζηχρήστος
EXTT4=Τραγούδι: Μ. Βαμβακάρης
EXTT5=Τραγούδι: Έλλη Πετρίδου, Μ. Βαμβακάρης, Ρούκουνας
EXTT6=Τραγούδι: Απ. Χατζηχρήστος, Παπαϊωάννου
EXTT7=Τραγούδι: Απ. Χατζηχρήστος, Παπαϊωάννου
EXTT8=Τραγούδι: Μ. Βαμβακάρης, Χατζηχρήστος
EXTT9=Τραγούδι: Μ. Βαμβακάρης, Τσαουσάκης, Τσιτσάνης
EXTT10=Τραγούδι: Εσκενάζυ
EXTT11=Τραγούδι: Περδικόπουλος, Μανησαλής
EXTT12=Τραγούδι: Πάνος Σάμης
EXTT13=Τραγούδι: Απ. Χατζηχρήστος
EXTT14=Τραγούδι: Χασκίλ
EXTT15=Τραγούδι: Έλλη Σορφωνίου, Στ. Παγιουμτζής
EXTT16=Τραγούδι: Χασκίλ, Ιω. Σταμούλης
EXTT17=Τραγούδι: Π. Φώτης
PLAYORDER=
